<?xml version="1.0" standalone="no"?>
<!DOCTYPE svg PUBLIC "-//W3C//DTD SVG 20010904//EN"
 "http://www.w3.org/TR/2001/REC-SVG-20010904/DTD/svg10.dtd">
<svg version="1.0" xmlns="http://www.w3.org/2000/svg"
 width="237.000000pt" height="213.000000pt" viewBox="0 0 237.000000 213.000000"
 preserveAspectRatio="xMidYMid meet">

<g transform="translate(0.000000,213.000000) scale(0.100000,-0.100000)"
fill="#000000" stroke="none">
<path d="M1450 2012 c-25 -8 -28 -21 -34 -141 -4 -64 -9 -146 -12 -183 l-6
-68 -234 0 -234 0 0 -215 0 -215 215 0 216 0 44 93 c67 138 115 360 115 532 0
30 4 45 13 45 22 0 144 -107 202 -178 71 -85 109 -151 130 -227 25 -85 16
-285 -19 -414 -26 -97 -24 -122 10 -135 40 -15 155 73 216 164 21 32 28 24 61
-65 56 -153 62 -182 62 -335 l0 -145 -34 -65 c-64 -122 -199 -227 -341 -265
-30 -8 -97 -15 -149 -15 -169 0 -289 48 -404 161 -75 75 -111 142 -129 239
l-12 60 -98 0 -98 0 0 -215 0 -215 169 0 169 0 73 -35 c123 -58 224 -78 359
-73 90 4 133 12 200 34 253 84 410 290 410 535 0 152 -42 313 -127 484 -53
105 -68 125 -98 125 -27 0 -49 -24 -64 -70 -6 -19 -18 -46 -26 -60 -13 -22
-14 -13 -8 85 12 234 -43 383 -208 559 -115 123 -282 234 -329 218z"/>
<path d="M90 1613 c-8 -3 -18 -11 -22 -17 -4 -6 -8 -100 -8 -208 l0 -198 380
0 380 0 0 215 0 215 -357 -1 c-197 0 -365 -3 -373 -6z"/>
<path d="M60 910 l0 -160 215 0 215 0 0 160 0 160 -215 0 -215 0 0 -160z"/>
<path d="M600 910 l0 -160 264 0 c199 0 266 3 273 13 6 6 16 30 23 52 7 22 36
86 66 143 30 57 54 105 54 108 0 2 -153 4 -340 4 l-340 0 0 -160z"/>
<path d="M60 437 c0 -145 3 -206 12 -215 9 -9 107 -12 380 -12 l368 0 0 215 0
215 -380 0 -380 0 0 -203z"/>
</g>
</svg>
