<?xml version="1.0" standalone="no"?>
<!DOCTYPE svg PUBLIC "-//W3C//DTD SVG 20010904//EN"
 "http://www.w3.org/TR/2001/REC-SVG-20010904/DTD/svg10.dtd">
<svg version="1.0" xmlns="http://www.w3.org/2000/svg"
 width="217.000000pt" height="232.000000pt" viewBox="0 0 217.000000 232.000000"
 preserveAspectRatio="xMidYMid meet">

<g transform="translate(0.000000,232.000000) scale(0.100000,-0.100000)"
fill="#000000" stroke="none">
<path d="M1003 1936 c-129 -41 -213 -153 -213 -287 0 -55 6 -77 39 -145 21
-43 65 -116 97 -161 48 -67 63 -82 79 -77 16 4 17 3 5 -5 -13 -9 -13 -12 -1
-23 9 -8 11 -9 7 -1 -3 6 -2 14 4 18 6 4 10 -5 10 -21 0 -29 44 -84 66 -84 19
0 64 63 65 91 0 21 1 21 8 5 6 -15 18 -3 73 70 36 49 72 101 79 115 8 15 27
51 44 80 26 48 30 63 30 139 0 76 -3 91 -30 139 -70 127 -225 189 -362 147z
m193 -41 c100 -41 168 -141 169 -246 0 -47 -7 -70 -42 -140 -24 -46 -72 -122
-107 -169 -35 -47 -65 -94 -67 -104 -2 -11 -7 -18 -10 -15 -4 2 -16 -4 -27
-14 -17 -15 -21 -16 -32 -3 -6 9 -17 14 -23 13 -7 -1 -11 3 -10 10 1 6 -29 53
-67 105 -39 51 -89 129 -112 173 -38 70 -43 88 -42 145 0 102 53 188 146 234
61 31 166 36 224 11z"/>
<path d="M956 1768 c-8 -30 -8 -212 0 -232 8 -21 40 -21 48 0 8 20 8 218 0
238 -9 24 -41 19 -48 -6z"/>
<path d="M1083 1784 c-8 -4 -13 -27 -13 -62 0 -41 3 -53 10 -42 5 8 10 10 10
5 0 -6 -5 -16 -11 -22 -5 -5 -9 -38 -7 -74 3 -56 5 -64 23 -64 17 0 20 8 23
53 l3 52 48 0 c63 0 101 28 101 75 0 57 -26 77 -106 81 -38 2 -75 1 -81 -2z
m121 -50 c32 -32 10 -65 -46 -67 -32 -2 -33 -1 -36 41 -3 42 -3 42 32 42 19 0
42 -7 50 -16z"/>
<path d="M610 1583 c-8 -3 -23 -12 -32 -21 -17 -14 -18 -43 -18 -348 0 -330 0
-333 22 -354 20 -19 34 -20 205 -20 l183 0 0 -35 0 -35 -70 0 c-83 0 -122 -16
-140 -59 -26 -63 -34 -61 335 -61 369 0 361 -2 335 61 -18 42 -43 53 -140 59
l-85 5 -3 33 -3 32 168 1 c92 1 174 1 182 -1 7 -1 24 9 37 21 l24 22 0 332 c0
325 0 332 -21 351 -28 25 -154 28 -154 4 0 -11 15 -16 62 -18 34 -2 66 -9 72
-15 10 -12 13 -119 12 -414 l-1 -133 -495 0 -495 0 0 129 c0 94 -3 131 -12
134 -10 4 -10 6 0 6 9 1 12 35 12 135 0 97 4 136 13 144 7 6 42 12 77 14 50 2
65 7 65 18 0 11 -14 15 -60 17 -33 1 -67 -1 -75 -4z m970 -656 c0 -47 4 -47
-495 -47 -499 0 -495 0 -495 47 l0 23 495 0 495 0 0 -23z m-410 -137 l0 -50
85 0 c85 0 130 -12 139 -36 4 -12 -46 -14 -299 -14 -260 0 -304 2 -299 14 9
22 60 36 135 36 l69 0 0 50 0 50 85 0 85 0 0 -50z"/>
<path d="M0 75 l0 -75 1085 0 1085 0 0 75 0 75 -1085 0 -1085 0 0 -75z m183
30 c43 0 47 -2 48 -25 1 -23 2 -23 9 5 7 28 8 27 9 -12 1 -33 -3 -43 -15 -43
-8 0 -12 4 -9 10 3 5 -3 10 -14 10 -15 0 -21 7 -22 23 l-2 22 -4 -22 c-4 -20
-11 -23 -54 -23 -50 0 -58 7 -37 28 9 9 9 12 -1 12 -7 0 -9 5 -6 11 4 6 13 8
21 5 8 -3 14 0 14 7 0 8 3 8 8 2 4 -6 28 -10 55 -10z m1735 -52 c-10 -2 -28
-2 -40 0 -13 2 -5 4 17 4 22 1 32 -1 23 -4z m102 -1 c0 -4 -18 -6 -40 -4 -22
2 -40 6 -40 8 0 2 18 4 40 4 22 0 40 -3 40 -8z m58 1 c-10 -2 -26 -2 -35 0
-10 3 -2 5 17 5 19 0 27 -2 18 -5z"/>
<path d="M130 79 c0 -5 5 -7 10 -4 6 3 10 8 10 11 0 2 -4 4 -10 4 -5 0 -10 -5
-10 -11z"/>
<path d="M201 74 c0 -11 3 -14 6 -6 3 7 2 16 -1 19 -3 4 -6 -2 -5 -13z"/>
</g>
</svg>
