<?xml version="1.0" standalone="no"?>
<!DOCTYPE svg PUBLIC "-//W3C//DTD SVG 20010904//EN"
 "http://www.w3.org/TR/2001/REC-SVG-20010904/DTD/svg10.dtd">
<svg version="1.0" xmlns="http://www.w3.org/2000/svg"
 width="249.000000pt" height="202.000000pt" viewBox="0 0 249.000000 202.000000"
 preserveAspectRatio="xMidYMid meet">

<g transform="translate(0.000000,202.000000) scale(0.100000,-0.100000)"
fill="#000000" stroke="none">
<path d="M1090 1889 c-423 -34 -755 -207 -886 -459 -27 -51 -29 -63 -29 -165
0 -105 2 -114 34 -180 43 -88 157 -204 257 -264 234 -138 510 -200 841 -188
355 13 655 117 844 293 154 145 201 344 120 508 -149 303 -655 498 -1181 455z
m-101 -174 l63 -76 29 23 c16 13 56 45 89 71 33 27 60 45 60 40 0 -13 -112
-347 -119 -355 -8 -9 -377 -61 -392 -56 -5 2 12 20 38 41 26 20 66 52 87 71
l39 34 -63 76 -63 76 28 22 c15 11 50 40 79 64 28 24 53 43 56 43 3 1 34 -33
69 -74z m589 -17 c150 -51 183 -65 187 -82 7 -34 35 -349 32 -353 -2 -2 -34
33 -71 77 -37 44 -72 80 -77 80 -6 0 -43 -22 -84 -50 -41 -27 -76 -50 -79 -50
-7 0 -126 147 -126 157 0 4 34 30 75 57 41 27 75 53 75 58 0 6 -30 46 -66 89
-36 43 -62 79 -57 79 4 0 90 -28 191 -62z m-816 -527 l38 -44 84 56 84 56 59
-75 c32 -41 59 -78 61 -84 2 -5 -33 -33 -76 -62 l-80 -54 68 -84 c38 -46 68
-85 66 -87 -6 -6 -369 126 -376 136 -4 7 -12 76 -19 154 -6 78 -14 158 -17
177 l-6 35 39 -40 c21 -22 55 -60 75 -84z m988 22 c0 -5 -38 -39 -84 -77 l-84
-68 64 -76 c35 -42 61 -79 57 -82 -5 -4 -40 -32 -79 -63 -67 -53 -94 -67 -94
-49 -1 4 -27 36 -59 71 l-58 64 -83 -67 c-45 -36 -85 -64 -87 -62 -5 4 105
345 114 356 2 2 90 16 196 31 106 15 193 27 195 28 1 1 2 -2 2 -6z"/>
<path d="M2258 885 c-30 -40 -177 -144 -267 -189 -209 -106 -415 -154 -686
-163 -255 -8 -421 13 -635 83 -170 54 -327 142 -431 241 l-36 35 -6 -34 c-7
-50 9 -136 39 -195 81 -167 330 -322 622 -388 636 -144 1350 96 1429 479 11
56 8 142 -6 150 -3 2 -14 -6 -23 -19z"/>
</g>
</svg>
