<?xml version="1.0" standalone="no"?>
<!DOCTYPE svg PUBLIC "-//W3C//DTD SVG 20010904//EN"
 "http://www.w3.org/TR/2001/REC-SVG-20010904/DTD/svg10.dtd">
<svg version="1.0" xmlns="http://www.w3.org/2000/svg"
 width="225.000000pt" height="225.000000pt" viewBox="0 0 225.000000 225.000000"
 preserveAspectRatio="xMidYMid meet">

<g transform="translate(0.000000,225.000000) scale(0.100000,-0.100000)"
fill="#000000" stroke="none">
<path d="M356 2087 c-22 -12 -48 -36 -58 -54 -13 -22 -47 -201 -113 -603 l-95
-572 0 -251 c0 -224 2 -256 19 -293 21 -45 67 -85 120 -103 24 -8 280 -11 903
-11 761 0 873 2 906 15 47 20 79 50 103 97 17 34 19 61 19 300 l0 263 -93 562
c-84 502 -96 566 -119 601 -51 76 -8 72 -825 72 l-728 0 -39 -23z m1508 -96
c7 -10 156 -994 152 -998 -1 -2 -399 -2 -882 -1 l-880 3 28 200 c65 478 110
791 115 798 6 10 1461 9 1467 -2z m180 -1137 c3 -9 6 -122 6 -253 0 -171 -3
-240 -12 -249 -17 -17 -1809 -17 -1826 0 -13 13 -18 499 -5 511 3 4 417 7 919
7 822 0 912 -2 918 -16z"/>
<path d="M662 1788 l-92 -93 90 -68 c49 -37 92 -67 95 -67 3 0 5 20 5 45 l0
45 93 0 92 -1 160 -237 160 -237 135 -3 c147 -3 170 0 194 24 20 19 21 74 2
100 -13 17 -29 19 -144 22 l-129 4 -164 234 -164 234 -117 0 -117 0 -3 45 -3
46 -93 -93z"/>
<path d="M1520 1837 l0 -47 -107 0 c-122 0 -125 -1 -218 -89 l-57 -54 46 -46
46 -45 48 47 48 47 96 0 97 0 3 -46 3 -46 88 66 c48 37 87 70 87 74 0 4 -40
48 -90 97 l-90 90 0 -48z"/>
<path d="M948 1385 l-43 -65 -92 0 c-113 0 -138 -9 -146 -49 -7 -33 7 -81 26
-93 15 -10 248 -10 264 0 6 4 39 47 72 97 l61 89 -42 43 c-23 24 -46 43 -50
43 -4 0 -27 -29 -50 -65z"/>
<path d="M660 690 l0 -50 105 0 105 0 0 50 0 50 -105 0 -105 0 0 -50z"/>
<path d="M1010 690 l0 -50 105 0 105 0 0 50 0 50 -105 0 -105 0 0 -50z"/>
<path d="M1370 690 l0 -50 105 0 105 0 0 50 0 50 -105 0 -105 0 0 -50z"/>
<path d="M1720 690 l0 -50 105 0 105 0 0 50 0 50 -105 0 -105 0 0 -50z"/>
<path d="M390 670 c-60 -60 18 -153 88 -104 47 33 16 124 -43 124 -14 0 -34
-9 -45 -20z"/>
<path d="M660 525 l0 -55 106 0 105 0 -3 53 -3 52 -102 3 -103 3 0 -56z"/>
<path d="M1010 525 l0 -55 106 0 105 0 -3 53 -3 52 -102 3 -103 3 0 -56z"/>
<path d="M1370 525 l0 -55 105 0 105 0 0 55 0 55 -105 0 -105 0 0 -55z"/>
<path d="M1720 525 l0 -55 105 0 105 0 0 55 0 55 -105 0 -105 0 0 -55z"/>
</g>
</svg>
